<?xml version="1.0" encoding="UTF-8"?>
<svg id="Layer_3" xmlns="http://www.w3.org/2000/svg" viewBox="0 0 887 980">
  <defs>
    <style>
      .cls-1 {
        fill: #8e0c0f;
      }

      .cls-2 {
        font-family: BebasNeue-Regular, 'Bebas Neue';
        font-size: 40px;
      }

      .cls-3 {
        fill: #68100c;
      }

      .cls-4 {
        stroke-width: 7px;
      }

      .cls-4, .cls-5, .cls-6 {
        fill: none;
      }

      .cls-4, .cls-5, .cls-6, .cls-7 {
        stroke-miterlimit: 10;
      }

      .cls-4, .cls-6 {
        stroke: #000;
      }

      .cls-5 {
        stroke: #006837;
        stroke-width: 2px;
      }

      .cls-8 {
        fill: #dfe8e9;
      }

      .cls-9 {
        fill: #207b50;
      }

      .cls-6 {
        stroke-width: 3px;
      }

      .cls-7 {
        fill: #dfe0af;
        stroke: #dfe0af;
      }
    </style>
  </defs>
  <path class="cls-7" d="M712,709.76c-84,9.76-165,0-165,0v150.27s7,41.55,55,42.77,104,9.78,110-50.1v-142.94"/>
  <path class="cls-5" d="M712,709.76v-304.59s-3-38.8-19-51.02c-16-12.22-40-52.54-32-207.73,0,0,13-15.89,3-39.1l-1-11s-6-8.55-14-9.78c-8-1.22-41.45,0-41.45,0,0,0-7.55,9.78-9.55,21.99h-4v26.88h4v155.19s-5,28.1-13,39.1c-8,11-36,46.43-38,72.09v307.96"/>
  <polyline class="cls-4" points="110 93 110 905.91 849.24 905.91 849 891"/>
  <line class="cls-6" x1="110" y1="188.01" x2="127.72" y2="188.01"/>
  <line class="cls-6" x1="110" y1="332.01" x2="127.72" y2="332.01"/>
  <line class="cls-6" x1="110" y1="475.01" x2="127.72" y2="475.01"/>
  <line class="cls-6" x1="110" y1="619.01" x2="127.72" y2="619.01"/>
  <line class="cls-6" x1="110" y1="763.01" x2="127.72" y2="763.01"/>
  <text class="cls-2" transform="translate(41.45 201.06)"><tspan x="0" y="0">250</tspan></text>
  <text class="cls-2" transform="translate(43.45 345.06)"><tspan x="0" y="0">200</tspan></text>
  <text class="cls-2" transform="translate(43.45 488.06)"><tspan x="0" y="0">150</tspan></text>
  <text class="cls-2" transform="translate(37.45 632.06)"><tspan x="0" y="0">100</tspan></text>
  <text class="cls-2" transform="translate(59.45 776.06)"><tspan x="0" y="0">50</tspan></text>
  <text class="cls-2" transform="translate(78.45 928.06)"><tspan x="0" y="0">0</tspan></text>
  <g>
    <g>
      <path class="cls-1" d="M394,354.15c-13.15-10.04-31.71-39.08-33.46-135.27-29.46,6.88-61.54,0-61.54,0v71.74s-5,28.1-13,39.1c-8,11-36,46.43-38,72.09v458.23s7,41.55,55,42.77,104,9.78,110-50.1v-447.53s-3-38.8-19-51.02Z"/>
      <g>
        <path class="cls-9" d="M394,354.15c-.66-.5-.27-.24,1.48,1.23l1.16,1.14c-.42-.41-.84-.84-1.27-1.24l-1.36-1.14Z"/>
        <path class="cls-9" d="M403.23,366.28c1.21,2.4,2.34,5.29,1.68,3.68-1.05-2.44-1.31-3.04-2.66-5.56-1.09-2.01-2.06-3.42-1.84-3.1-.44-.68-2.02-2.93-2.88-3.81,1.98,2.22,4.07,5.4,5.78,8.94.38.76.01.02-.07-.15Z"/>
        <path class="cls-9" d="M412.91,588.24v-1.44c0,.39,0,.89,0,1.44Z"/>
        <path class="cls-9" d="M412.7,726.63c0-1.05-.02-1.49-.03-1.55,0,.98.02,1.78.03,1.55Z"/>
        <path class="cls-9" d="M412.48,750.26c0-.51,0-.93.01-1.39-.02.53-.03,1.07-.01,1.39Z"/>
        <path class="cls-9" d="M412.91,588.24l-.02,3.7c.02.26.02-1.89.02-3.7Z"/>
        <path class="cls-9" d="M411.81,395.74c-.13-.76-.23-1.4-.33-1.98.11.63.21,1.23.31,1.86,0,.04.01.06.02.12Z"/>
        <path class="cls-9" d="M412.92,527.23v-1.12c0-.33,0-.64-.01-.93v2.06Z"/>
        <path class="cls-9" d="M412.95,480.4c0,1.06.02,1.43.02,1.83,0-.61,0-1.38-.01-2.31,0-.02,0,.12-.01.48Z"/>
        <path class="cls-9" d="M413,406.16c-.01-.44.03-.88-.03-1.32.05.34.02.92.03,1.32Z"/>
        <path class="cls-9" d="M412.88,560.74c0,.09,0,.25-.02.43,0,0,.01-.17.02-.43Z"/>
        <path class="cls-9" d="M369.72,306.69s0,.02,0,0c.06.27.08.35,0,0Z"/>
        <path class="cls-9" d="M394,354.15l-.58-.48c-.05-.04-.1-.08-.12-.1l.7.59Z"/>
        <path class="cls-9" d="M412.17,793.5c0-.08,0-.11,0-.19-.02-1.14-.01-.49,0,.19Z"/>
        <path class="cls-9" d="M249.15,735.63c-.25,4.5-.32-7.32-.6-.55.11-.63.44,6.15.6.55Z"/>
        <path class="cls-9" d="M412,396.94c.09.63.18,1.26.28,1.9-.13-.86-.21-1.45-.28-1.9Z"/>
        <path class="cls-9" d="M248.55,735.08h0l-.03.7c.01-.29.02-.45.03-.7Z"/>
        <path class="cls-9" d="M396.46,888.18c.19-.09.48-.34.79-.61-.05,0-.2.17-.79.61Z"/>
        <path class="cls-9" d="M412.47,818.91l-.03,1.84c.01-.73.02-1.32.03-1.84Z"/>
        <path class="cls-9" d="M361.75,902.12c-.99.1-1.33.09-2.67.26.13,0,.25,0,.41-.01.48-.09,1.13-.15,2.26-.25Z"/>
        <path class="cls-9" d="M321.79,902.74c.21.02.49.05.74.08.4.01.86.02,1.27.03l-2.01-.11Z"/>
        <path class="cls-9" d="M327.32,221.74c.88.05,1.42.05,1.85.06-.62-.04,5.27.03-1.85-.06Z"/>
        <path class="cls-9" d="M411.82,395.77c.04.24.09.57.18,1.18-.07-.46-.14-.89-.21-1.32-.02-.11-.02-.14.02.14Z"/>
        <path class="cls-9" d="M360.34,904.18l-3.2.31-3.2.22c1.79-.1,4.12-.26,6.4-.52Z"/>
        <path class="cls-9" d="M247.27,465.51l-.02-1.46c0,.56,0,1.08.02,1.46Z"/>
        <path class="cls-9" d="M334.93,905.12c-1.14-.11-2.35-.19-3.59-.25-.26.01-.57.02-.74.05l4.34.2Z"/>
        <path class="cls-9" d="M329.18,221.8s-.01,0-.01,0c0,0,0,0,.01,0Z"/>
        <path class="cls-9" d="M360.95,229.26c-.17-6.07-.1-2.85-.16-4.14-.22-7.24-.08-3.35-.14-5.82l-.02-.54c-.28.02-.39.07-.52.09-.27.06-.53.11-.8.16-.52.11-1.03.21-1.53.31-.99.2-1.94.4-2.84.59-1.83.28-3.52.54-5.19.79-.25.04-.9.11-.14,0-2.37.27-5.9.68-9.55.86-3.64.21-7.39.26-10.17.24-.41,0-.62-.01-.73-.01.9.03,1.04.05.86.06-2.72.02-5.05-.12-6.07-.16,1.66.05,1.81.05,2.59.07l-2.85-.09c-1.28-.07-.31-.03.98,0,.65.02,1.37.05,1.94.06.57.02.97.02.97.02-5.56-.09-12.03-.59-16.26-1.1-.44-.08,2.03.21,3.92.38,1.88.16,3.17.27.34,0l3.28.29,3.29.21c-5.02-.37,4,.25-.62-.1-2.16-.12-3.85-.26-5.29-.39-1.45-.11-2.65-.24-3.86-.38-2.41-.25-4.81-.54-9.08-1.23-1.93-.29.63.15-1.3-.15-.76-.14-1.45-.26-2.1-.38-.16-.03-.32-.06-.48-.09l-.3-.06-.16-.03s-.13-.05-.1.03c0,.35,0,.68,0,1,0,1.12,0,2.07,0,2.88-.02,1.62-.03,2.73-.04,3.74-.03,2.01-.07,3.62-.04,8.15.03,2.34.11,3.25.06,9.69l-.07-2.2c-.02,8.4.1,4.8.03,13.6-.03-1.56-.01-6.6-.03-5.33-.07,5.7.04,4.03.03,8.42l-.07.91c.01,8.95.02,18.8.03,28.71-.03-.55-.05-2.25-.08.07v1.18s0,.59,0,.59v.3c0,.06,0,.1,0,.1l-.02.14c-.15.78-.3,1.56-.45,2.35-.32,1.57-.66,3.16-1.02,4.76-.72,3.19-1.53,6.41-2.43,9.58-.89,3.18-1.88,6.31-2.98,9.33-1.07,3.03-2.32,5.9-3.69,8.55l-1.05,2.02-1.2,1.93c-.6.87-1.21,1.57-.53.63-2.82,3.75-.09.23-1.4,2.07-1.59,2.15-2.16,2.8-1.17,1.42-2.44,3.35-5.92,8.13-9.32,13.03-3.42,4.89-6.67,9.96-9.05,13.63l.88-1.46c-3.63,5.77-3.78,6.7-6.93,12.17.17-.37.37-.72.56-1.07-3.54,6.49-6.83,13.59-8.99,20.65-1.08,3.52-1.85,7.03-2.24,10.39-.05.43-.14.8-.16,1.28,0,.41,0,.82-.01,1.22,0,.81-.02,1.6-.03,2.38-.03,1.55-.06,3.04-.08,4.45.22,2.14-.14,14.61.19,15.56-.18,8.43-.24,6.02-.38,17.89-.03,3.17.21,4.73.24,8.64l-.19.1.19,5.32-.24,2.83.04,3.68c.02-1.46.1-3.11.15-2.89.04,2.87,0,6.37-.07,9.17-.04,1.4-.08,2.62-.11,3.51-.04.88-.07,1.43-.1,1.46l.14,13.59c-.08-.3-.11-2.58-.16-4.38.2,7.25-.23,1.32-.05,7.96.05-.89.13.48.17.63-.14,3.31-.16,10.85-.11,16.43l-.15-1.07c0,10.08,0,21.24,0,32.55.09-4.06.37-3.12.39.19l-.26,1.33c.15,2.14.1-3.46.29.93-.03,4.22-.3,2.84-.38.41l.08,5.14c-.08.3-.12-.9-.21-1.22.16,2.11-.29,8.87,0,11.91l-.08.29c.02,11.31.03,16.43.05,25.64.24.18.18,3.78.37,6.53-.09,6.77-.29,14.28-.28,22.43.12,5.73.21,1.67.36,4.25-.23.42-.22,8.57-.38,4.34.02,9.79.03,12.5.21,24.88.1-1.34.14-2.85.22-2.07.04,2.25-.1,5.11-.22,4.79l-.02-.59c.35,13.89-.74,32.07-.24,43.13l-.03-.62.26,11.47c-.05,5.28-.18-3.17-.34.74.41,12.38-.07,19.55.2,29.75-.75,7.89.04,28-.44,38.65l.18-.62c.17,2.75-.1,3.33-.14,5.36.14-.29.16-2.99.26-1.28.21,23.32-.26,48.12-.4,72.03-.02,4.37.21,5.61.39,7.14.09.76.17,1.6.2,2.93,0,.35,0,.73.01,1.16.04.38.09.53.13.77.05.22.1.46.15.7.22.97.49,2.11.87,3.47-.43-.98-.82-1.98-1.19-3,2.44,8.75,6.85,17.05,12.98,23.91,3.09,3.4,6.6,6.4,10.42,8.85,3.82,2.45,7.93,4.35,12.13,5.67-1.01-.29-1.07-.21-2.69-.8.86.36,2.09.87,3.48,1.34,1.41.4,2.94.93,4.41,1.19,1.46.31,2.81.6,3.81.69,1,.12,1.64.18,1.66.14,1.34.24,1.5.28,1.52.34.02.05-.09.1.74.24.92.13,1.97.24,3.04.34,1.08.03,2.19.06,3.25.09,2.12.06,3.95.02,4.93.17.33.05-1.03.04-1.7.04,2.38-.06,11.09.4,8.82.06,6.47.36,12.4.36,17.57.63,3.38-.16,11.13.25,12.2-.17-.23.21,2.62.25,6.05.12,3.43-.13,7.43-.47,9.47-.8-1.36.26,3.58-.25,1.99.08,4.69-.54,8.94-1.48,8.09-1.51,4.32-.61,8.56-1.85,12.21-3.28.91-.36,1.77-.76,2.61-1.12.42-.18.83-.35,1.23-.53.39-.19.77-.38,1.15-.57.75-.37,1.46-.7,2.13-1,.66-.32,1.26-.64,1.83-.9,6.11-3.65,11.01-8.69,14.55-14.29,3.58-5.6,5.73-11.76,7.11-17.89.08.13-.13,1.04-.45,2.32-.16.64-.35,1.38-.56,2.16-.18.78-.52,1.57-.78,2.38-.28.8-.55,1.59-.81,2.32-.28.72-.59,1.37-.81,1.93-.47,1.11-.73,1.82-.59,1.73.58-1.4,1.21-2.69,1.66-3.98.43-1.3.84-2.54,1.24-3.74.6-2.45,1.26-4.73,1.61-7.06.19-1.16.45-2.31.59-3.5.14-1.18.28-2.39.43-3.63.04-.31.08-.62.11-.94l.03-.25c.01-.13,0-.23,0-.29v-.48c0-.64,0-1.29,0-1.96,0-1.34,0-2.73,0-4.2.04-3.04.14,1.73.2,2.76-.15-11.85-.02-22.9-.21-33.44.01.01.03.31.04.73.01.42.03.98.04,1.51-.01-2.08.03-4.83-.1-4.6l.04,2.03c-.19,3.32-.41-8.25-.51-8.62.38,3.53.08-10.41.55-4.81-.03-1.37-.09-3.08-.17-2.77.02-2.03.07-2.67.17-.62-.09-7.44-.21-4.8-.22-11.54.06.02.08,1.38.16,2.08-.12-3.41-.24-6.84-.2-12.54.03.34.08-.32.08,1.38-.04-9.78-.31-16.68-.22-27.41.23,3.17.07-3.65.26-4.22l-.07-5.77-.09,2.32c0-5.06-.14-9.52-.09-13.87l.08,3.76-.05-9.47-.06,5.36c-.1-5.12-.22.55-.18-6.18.02,1.37,0-5.06.1-7.69v.02c-.05-2.5-.11-5.07-.07-8.81.05-.97.18.78.21.15-.13-2.47-.05-11.84-.19-14.96.03,1.04.11,1.1.12.75l-.1-2.07c.03-2.34.04-2.68.1-2.3,0-7.04-.18,2.24-.11-6.12.01.66,0,.34.04,1.71-.01-8.4-.02-16.22-.04-23.94.12-2.28.04,6.74.14,4.14-.05-11.13-.17-23.04-.16-33.8v2.01c-.15-1.49.05-8.02-.02-13.46.01,1.33.08,1.75.06,1.39-.03-7.37-.05-15.07-.09-26.25l.03,1.38c0-4.35,0-11.44,0-16.14-.03-1.39-.02-4.08-.06-2.45.11-14.47-.08-27.61,0-40.45,0,1.54.02,3.66.02,2.44l-.02-10.94c-.03.87-.01,1.43-.03,3.73,0-1.39-.02-4.47-.03-7.18.02,4.92.04-.04.05-2.17,0,.36-.02-.37-.02-.19.04-5.71-.05-.96-.02-8.76v.41c0-2.92,0-5.61,0-8.76.02-1.31.01,3.11.03,3.31,0-4.42-.02-8.72-.02-12.73,0,1.88,0,4.58.01,6.46,0-4.37.01-4.87.02-8.1v.32s0-7.49,0-7.49v1.91c-.02-5.57-.03-11.26-.04-18.72.02,7.25.01,1.2.03,1.75,0-1.9,0-4.8.01-3.97,0-3.53,0-5.87-.01-10.85,0-.22,0-3.77,0-2.97,0-4.58,0,1.08-.01.7,0-7.07,0-16.59-.01-26.75,0-8.75,0-10.38-.01-18.5,0-2.74,0,2.25,0,2.25,0-1.11,0-2.14,0-3.14,0-1,.03-1.96-.09-2.91-.19-1.9-.42-3.76-.71-5.82.12.84,0-.03-.19-1.28-.53-3.3-.33-2.21-1.14-6.55.14.75.32,1.71.61,3.29-.68-3.89-1.49-7.7-2.52-11.65-.27-1.05.63,2.38.94,3.79-.51-2.24-1.26-5.11-2.01-7.58-.75-2.46-1.48-4.52-1.73-5.18.34.92.66,1.85.97,2.78-.54-1.58-.26-.82.11.36,1.2,3.74,1.59,5.44,1.67,5.65-.26-.93-.5-1.87-.79-2.8.42,1.43,1.21,4.24,1.92,7.44.72,3.2,1.39,6.77,1.84,9.66l-.4-2.41c.34,1.97.64,3.95.91,5.93.16,1.27.28,2.13-.1-.73.28,2.08.38,3,.48,3.85.04.43.09.83.14,1.36.02.26.05.55.08.89,0,.34,0,.73,0,1.18,0,.4,0,.22,0-.15v4.1c0-.76,0,.54,0-1.84,0,7.36,0,11.85,0,14.64v-.62c.02,9.98,0,1.15.01,8.64l-.02,5.15v1c0,1.04,0,2.35,0,2.75,0,3.92,0-.67,0,1.61,0,5.07-.01,13.88-.01,15.12,0,1.82,0-4.85.01.56,0,1.63,0,6.26,0,10.89-.01-1.42,0-5.81-.02-1.18,0,2.83,0,9.02,0,12.92,0,.41,0,8.5.01,15.05,0,.43-.03,12.34-.04,18.43v-.18c.03,1.18.02,7.47.02,12.05-.02-.18-.03-1-.04-3.48v4.31c0,1.02,0,2.36.02,5.15l-.03-1.08c0,5.73,0,11.54,0,18.91.04.41.1-5.86.12,1.93-.02.29-.05.58-.06-1.46,0,.67,0,2.38,0,3.73l-.03-3.11c-.02,3.36.03,1.76.02,4.44-.03-.05-.02,1.99-.05,1.6,0-.69,0-2.34,0-3.37-.02,3.02-.04,6.68-.05,7.9.02-.26.04,0,.04,2.22,0,5.73-.04,1.96-.06,5.3.02,1.39,0,5.04.04,5.14,0,1.68-.03,1.99-.04,2.63.02,2.97,0,13.85.06,10.51v-.76c0,.14,0,.31,0,.48v-.02.02c0,9.72-.02,20.19-.03,29.84l-.02-.02c.02,5.76,0,12.81.06,16.93,0,1.7-.05,4.02-.09,3.29.02,4.4.05,4.89,0,11.25-.05-4.43-.05,1.53-.03-4.53-.03,5.72-.09,7.01,0,13.15-.08-2.09-.11,4.31-.09,7.02l.07-4.01c0,3.06,0,5.73-.01,8.44l-.11-1.47c-.18,11.7.22,21.11-.06,30.01.09,3.1.08-6.36.18-3.59-.02,5.38-.23,10.99-.24,12.68-.1,7.37.2,6.88.13,14.6.06-.99.2-1.92.25,3.85-.02,5.39-.24,6.62-.28,3.22,0-1.29.02-1.92.03-1.86-.02-1.74-.04-4.02-.1-1.89l.05.7c-.06,2.67-.07,10.08-.16,8.34.04,4.07.09,1.74.13-1.27-.1,6.91-.02,10.8-.09,17.91.04-1.13.11-2.17.11-1.05-.09,10.43.11,4.59.13,11.66-.1,4.02-.23-1.44-.16,5.68-.08,4.34-.18.92-.22-.81.11,6.48-.11,12.11-.15,15.81l-.04-3.41c0,2.04.01,3.71.02,5.42l.14-1.95c-.01,1-.03,1.93-.04,2.6-.01.67-.03,1.09-.06,1.07.09,2.07.23-1.58.35,2.52-.08,2.67.07,8.14-.13,9.06.08-8.41-.2.93-.21-6.19.02,1.37.01,3.05-.02,5.06-.02.3-.04-.28-.05-.83-.2,8.04.21,3.7.19,12.03-.11-1.06-.22,1.93-.2,3.29.01-3.36.19-1.61.27,1.48-.1,5.35.06,5.81.04,8.61l.05-3.2c.11,1.08.1,3.76.13,7.48-.09.32-.06-3.38-.1-2.05.21,4.14-.23,9.35-.1,15.12-.09,2.67-.23.26-.29,2.61.15,6.45-.19,7.04-.07,13.76.09-.91.12-1.54.15-1.25.02.13.03.48.05,1.09.03.21-.04.61-.07,1.04-.04.44-.09.95-.15,1.54l.17-1.38c.04-.46.15-.94.12-1.32l-.03-2.79-.05-5.59.24,7.17c0-3.37-.1-7.12-.07-9.13.13,3.42.09,3.07.23,1.45-.13,2.31-.1,4.59-.05,6.97.01.59.02,1.19.03,1.8.05.57-.1,1.18-.15,1.8-.15,1.23-.33,2.5-.54,3.81l-.41-.23c-.4,1.94-.78,3.77-1.16,5.59-.23.89-.47,1.79-.7,2.68-.23.9-.44,1.81-.78,2.7-.3.9-.61,1.82-.93,2.77-.32.95-.79,1.87-1.2,2.86-.22.49-.44.99-.66,1.5-.27.49-.55.99-.83,1.5-.58,1.01-1.12,2.1-1.9,3.13.67-.87,1.22-1.83,1.77-2.78-.4,1.36-3.32,5.42-5.48,7.94.12-.31-1.4,1.12-2.45,2.05.04-.02-.23.35-.77.8-.54.46-1.27,1.09-2.03,1.75-.75.67-1.63,1.22-2.29,1.76-.67.52-1.17.95-1.34,1.12l-2.03,1.08c-.34.18-.67.37-1.01.53l-1.05.46c-.94.44-1.75.88-2.52,1.22-.77.33-1.47.63-2.11.91-1.27.6-2.39.97-3.47,1.42-1.08.46-2.19.81-3.5,1.22-1.3.44-2.85.78-4.81,1.21,2.32-.72-1.25,0,3.94-1.35-2.59.64-4.95,1.11-4.97,1.21-.78.07-2.59.5-4.54.82-.97.15-1.98.31-2.89.45-.91.12-1.74.18-2.36.21-1.12.18-1.47.44-4.48.62-.33-.01,0-.08,0-.08,0,.04-1.18.15-2.03.26-.85.08-1.36.16-.04.19-4.16-.04-9.95.1-15.61.05-5.66-.04-11.2-.21-14.8-.58-5.89-.18-12.98-.39-18.33-.55.34-.04.02-.09,1.03-.04-3.69-.18-4.79-.18-6.06-.1-.63.05-1.29,0-2.31-.06-1.02-.08-2.41-.18-4.46-.62-4.15-1,4.39.57,1.79.02-.52-.43-3.01-.69-5.98-1.4-.37-.08-.76-.16-1.14-.24-.38-.11-.77-.21-1.16-.32-.78-.22-1.57-.45-2.36-.67-1.53-.57-3.05-1.07-4.27-1.75l1.25.5c-.96-.46-2.03-.94-3.2-1.45-.57-.28-1.17-.57-1.78-.88-.31-.15-.62-.3-.94-.45-.31-.17-.63-.35-.94-.52-2.59-1.36-5.34-3.18-7.94-5.48,0,0,.29.18.09-.04-1.9-1.43-4.46-3.77-6.8-6.64-2.36-2.85-4.51-6.19-6.07-9.19,1.2,1.74,1.56,2.63,1.17,1.39-.72-1.32-.71-1.08-.88-1.16-.15-.1-.54-.49-1.81-3.24-.33-.93-.87-2.42-1.26-3.77-.39-1.35-.65-2.55-.6-2.87.53,1.8,1.17,3.58,1.89,5.32-.4-1.4-1.03-3.11-1.6-4.85-.28-.87-.56-1.75-.78-2.59-.11-.41-.21-.87-.28-1.19-.02-.06,0-.31,0-.5,0-.2,0-.39,0-.58l.15.39c-.05-8.78-.43-8.9-.4-18.33l-.12.97c-.39-5.15.22-4.32-.07-9.46l.39-1.56c-.09-3.4-.38-11.91-.45-18.01.29,3.46.44,10.59.61,15.01,0-3.37-.03-11.46-.22-13.21.04,1.36.13,3.07.07,4.41-.31-4.14-.46-9.58-.45-16.29.76,1.19.19-17.51.79-22.38-.28-11.88.12-23.57.07-37.42-.59,4.91-.02-4.04-.62-3.19-.04-3.22-.03-4.45,0-4.74l.36-9.77c.17-2.32.13,3.07.27,2.77.04-7.06.25-2.96.41-7.63-.21.96-.31-2.46-.23-6.48l-.27,5.67c-.32-9.87.5-8.53.17-18.47l.19,3.15c-.11-5.1-.02-18.83-.49-23.83.07-.9.23-2.1.27.15.05-12.2-.52-27.15-.25-36.63l.14.93c-.04-2.28-.26-3.96-.13-6.81.06.15.14.92.14-.14-.05-1.2-.25-6.04-.17-9.06l.16,2.58c.16-11.9-.4-18.26-.49-28.23.39.03.5-9.34.55-14.01l.05.16c.02-13.85-.36-23.53-.51-36.36.37-7.96.11-26.97.28-39.77-.05,1.96-.25-.32-.29-2.59.06-3-.23-8.3.06-7.83v1.07c.28-2.26.18-8.44.18-13.26l-.37-.79c.49-12.61-.24-33.03.18-39.91-.06-3.04-.12-6.81-.18-9.83l.17.16c.02-8.43.03-12.64-.04-23.05l.12,2.12c-.01-5.88-.46-7.42-.47-12.84l.22-1.63v-1.92s0-.96,0-.96c-.02-.25.07-.6.1-.9l.52-3.77c.23-1.25.58-2.48.86-3.72.16-.62.28-1.24.46-1.85l.59-1.82c1.46-4.89,3.57-9.56,5.61-14.17-.05.16-.14.45-.81,1.96.47-1.1,1.27-2.68,2.16-4.4.44-.86.91-1.77,1.37-2.67.49-.89.98-1.77,1.44-2.61.46-.84.9-1.64,1.28-2.34.4-.7.75-1.32,1.03-1.8.55-.98.79-1.46.52-1.11.05,0,.41-.58.97-1.5.54-.94,1.35-2.18,2.22-3.6.86-1.42,1.83-2.96,2.79-4.44.95-1.48,1.86-2.9,2.64-4.05l-.4.77c2.52-3.93,2.56-4.09,6.33-9.41.92-1.25.86-1.05-.36.6,3.06-4.14,2.28-3.31,6.03-8.3l-1.33,1.91c1.58-2.13,2.3-3.11,2.83-3.87.26-.38.49-.7.75-1.07.24-.39.51-.84.9-1.46.92-1.41,2.06-3.66,2.97-5.66.9-2.01,1.61-3.75,1.78-4.11.2-.69,1.14-3.44,2.09-6.43.15-.39-.16.7-.34,1.25,2.67-8.47,3.44-12.74,4.81-18.68.05-.12.14-.51.25-1-1.4,6.91-2.91,12.39-2.77,11.88.08.02,1.5-5.5.47-1.08.55-2.22,1.22-5.25,1.87-8.4.33-1.58.64-3.19.92-4.75l.11-.58.03-.15c.02-.09,0-.14,0-.19v-.29c0-.39,0-.77,0-1.15,0-.75,0-1.48,0-2.17,0-.27.02-.53.02-.73v.57c0-1.28,0-2.43,0-3.51,0-1.77,0-2.89,0-4.59.05-.66.01-6.52,0-9.36-.06.23-.06-3.48-.11,0,0-.45,0,.54.01,2.42,0,.43,0,.93,0,1.21,0-.05,0-.12,0-.19,0,1.86,0,4.29.02,7.05-.04-2.24-.07-4.58-.04-7.72-.04-1.46-.08-3.06-.11-3.96.05-3.89.15-11.34.16-12.41-.05-8.66-.06-20.41-.15-25.85-.01-2.46.02-2.83.03-3.75,0,1.42.02,3.11.02,3.88,0-2.46-.02-6.11-.03-9.29,0-.4,0-.79,0-1.17,0-.15,0-.31,0-.45,0-.06.1,0,.15,0l.21.04c.7.14,1.34.25,1.91.35,1.13.2,1.95.31,2.24.35,6.14.93-3.47-.42,4.99.75l-1.14-.13c8.32,1.13,15.15,1.53,22.19,1.59,7.04.02,14.34-.24,23.54-1.64-1.27.19-1.91.28-2.17.32,1.31-.2,2.63-.4,3.95-.6,1.31-.27,2.62-.53,3.94-.8l.99-.2.49-.1c.17-.08.1.08.12.26l.06,2.02c.04,1.35.08,2.7.12,4.05.18,5.42.27,10.87.64,16.3.31,5.44.57,10.87,1.08,16.23.23,2.68.45,5.35.68,8,.3,2.64.6,5.26.9,7.86.35,2.95.52,4.59.71,5.94.21,1.34.37,2.4.64,4.19l.19,1.27.95,6.13c.41,2.16.8,4.18,1.18,6.16.39,1.98.71,3.93,1.22,5.92.47,2,.96,4.06,1.49,6.31.54,2.24,1.3,4.62,2.05,7.3l-.4-1.38c.28.96.62,2.21,1.02,3.51.45,1.29.92,2.65,1.34,3.87.42,1.22.8,2.3,1.06,3.04.29.73.46,1.11.39.95.16.38.5,1.21,1.1,2.66l.05.11.94,2.27c.32.75.71,1.47,1.07,2.21l1.09,2.2c.36.74.71,1.47,1.15,2.17,1.89,3.22,1.75,2.98,1.85,3.15.08.11.29.67,3.6,5.13.67.79,1.45,1.77,2.29,2.72.9.9,1.8,1.83,2.61,2.6,1.71,1.44,2.88,2.41,2.28,1.91-.64-.54-1.45-1.22-2.12-1.78-.66-.57-1.11-1.09-1.16-1.12.85.93,1.87,1.69,2.82,2.51.26.23.96.79.69.57-.14-.1-.51-.42-1.29-1.08-.39-.33-.9-.73-1.49-1.28-.57-.57-1.25-1.26-2.07-2.08-.76-.76-1.4-1.64-2.11-2.45-.34-.42-.7-.82-1.03-1.25l-.93-1.33-1.19-1.71c1.06,1.47,2.01,3.03,3.23,4.38-1.02-1.16-1.72-2.22-2.37-3.16-.64-.96-1.3-1.76-1.82-2.73-.27-.46-.73-1.24-1.37-2.34l-.8-1.37c-.26-.46-.48-.95-.71-1.42l-1.41-2.85c-.34-.69,1.26,2.55-.62-1.27-1.14-2.75,1.09,2.64-.8-1.91-.59-1.43-.8-1.94-1.04-2.5-.12-.28-.24-.58-.42-1.02-.19-.44-.43-1.01-.71-1.88-.15-.49.05.26.59,1.59-.6-1.5-1.25-3.54-1.9-5.37-.32-.92-.62-1.79-.87-2.53-.22-.75-.39-1.37-.51-1.77-.45-1.55-1.2-4.17-1.83-6.37-.52-2.19-.85-3.6-.91-3.86-.21-.99-1.38-5.52-1.86-8.46,1.04,5.32-2.13-10.91-1.72-9.52-.3-2-.85-5.57-1.45-9.53-.46-3.98-.97-8.35-1.38-11.89.05.4.14,1.17.21,1.79-.49-3.97-.49-5.14-.73-7.7-.05-.64-.57-6.73-.85-10.07-.27-4.9.2,2.97.14,1.43-.05.25-.49-8.51-.43-6.84-.19-3.74-.16-3.21-.26-5.16-.04-.66-.25-3.49-.33-6.6-.14-5.42-.04-1.41-.2-7.36-.07-2.84.09,2.47.09,2.47ZM298.81,288.36h0c0-1.22,0-2.26,0-2.93,0,.61,0,1.45,0,2.93ZM296.79,300.03c.33-1.41.74-3.17,1.13-5.04.11-.4.05.05-.21,1.22.13-.64-.49,2.1-.92,3.82ZM299.28,275.07c.01,1.89,0,2.52-.01,2.78,0-.89,0-1.93-.01-3.3,0-.06,0-.17,0-.22.01.18.03.39.03.75Z"/>
        <path class="cls-9" d="M299.19,271.68c0-.27,0-.42,0-.78,0,.39,0,.75-.01,1.13,0,.23.01.46.02.67,0-.34,0-.7,0-1.02Z"/>
        <path class="cls-9" d="M412.92,586.54v.25c0-.21,0-.4,0-.53,0,.17,0,.17,0,.28Z"/>
        <polygon class="cls-9" points="247.21 452.24 247.25 452.22 247.22 451.18 247.21 452.24"/>
        <path class="cls-9" d="M413.06,520.89c0-.13,0-.37,0-.86,0,.04,0,.41,0,.86Z"/>
        <path class="cls-9" d="M413.04,492.53v-4.01c0,1.74,0,3,0,4.01Z"/>
        <path class="cls-9" d="M413.04,470.73c0-.27,0-.35,0-.43,0,.02,0,.03,0,.04v.38Z"/>
        <path class="cls-9" d="M413.71,817.41c0,.29,0,.58.01.84.04,1.97.02.63-.01-.84Z"/>
        <path class="cls-9" d="M413.19,714.24c.02,1.1.04,2.17.06,3.32,0-1.84,0-3.26-.06-3.32Z"/>
        <path class="cls-9" d="M361.04,904.11s0,0,.01,0c-.25.03-.47.05-.71.07l.7-.07Z"/>
        <path class="cls-9" d="M413.25,722.36c.02-1.84.02-3.37,0-4.8,0,1.51-.02,3.28,0,4.8Z"/>
        <path class="cls-9" d="M407.42,376.82l-.32-1s-.01-.05-.04-.12l.36,1.12Z"/>
        <path class="cls-9" d="M407.06,375.71l-.38-1.1c.18.51.33.94.38,1.1Z"/>
        <path class="cls-9" d="M405.84,372.3c.29.76.58,1.53.84,2.31-.27-.81-.64-1.79-.84-2.31Z"/>
        <path class="cls-9" d="M413,405.09c.01.11,0,.22,0,.33,0-.18,0-.3,0-.33Z"/>
        <path class="cls-9" d="M413.01,413.86c0-2.09,0-5.25,0-8.17v-.27c0,1.38,0,6.45,0,8.44Z"/>
        <path class="cls-9" d="M412.98,450.47v-7.35c0,1.28,0,2.97,0-.37,0,8.18,0-.78,0,7.72Z"/>
        <path class="cls-9" d="M412.97,473.27c0-3.95,0,.05-.01-.16,0,2.5,0,3.11.01.16Z"/>
        <path class="cls-9" d="M412.82,637.97l-.07-.4c0,3.04.03.03.07.4Z"/>
        <polygon class="cls-9" points="413.24 669.45 413.29 666.49 413.21 665.08 413.24 669.45"/>
        <polygon class="cls-9" points="412.56 688.05 412.55 686.72 412.57 691.8 412.56 688.05"/>
        <path class="cls-9" d="M328.92,902.77l.91.31c2.06,0,2.49-.29-.91-.31Z"/>
        <path class="cls-9" d="M248.72,842.04c.16-1.3.26-4.66.1-6.73-.02,2.68-.14,5.36-.1,6.73Z"/>
        <polygon class="cls-9" points="248.84 483.91 248.92 486.31 248.85 481.78 248.84 483.91"/>
      </g>
    </g>
    <path class="cls-5" d="M360.54,218.88c-.38-20.84.03-44.83,1.46-72.46,0,0,13-15.89,3-39.1l-1-11s-6-8.55-14-9.78c-8-1.22-41.45,0-41.45,0,0,0-7.55,9.78-9.55,21.99h-4v26.88h4v83.45"/>
    <path class="cls-3" d="M393.39,710.21c3.12,49.85,0,100.09-9.23,149.18-1.3,6.89-2.87,14.09-7.47,19.38-6.35,7.32-16.85,9.22-26.52,9.82-20.84,1.3-41.92-1.31-61.81-7.67-3.9-11.34-2-24.52,4.95-34.3,11.14,13.94,34.38,15.84,47.64,3.9,9.99-9,13.47-22.98,16.45-36.09,10.19-44.79,20.38-89.59,30.57-134.38,5.02,6,10.05,12,15.07,17.99-4.47,3.71-7.24,9.4-7.38,15.21"/>
  </g>
  <path class="cls-8" d="M565.43,830.84c.01-28.82.02-57.64.03-86.46,0-1.87.04-3.87,1.12-5.4,1.08-1.53,2.97-2.24,4.75-2.84,30.06-10.12,62.36-13.57,93.88-10.01,1.1.12,2.25.28,3.15.91,2.72,1.91.95,6.66-2.17,7.79s-6.55-.03-9.73-.97c-29.61-8.79-64.21,3.33-81.86,28.68-1.81,2.59-3.48,5.39-4,8.51-.56,3.31.23,6.67.85,9.96,3.29,17.36,2.2,35.53-3.14,52.38-.47,1.47-1.06,3.05-2.4,3.81s-3.53-.04-3.43-1.58"/>
  <text class="cls-2" transform="translate(278.14 957.86)"><tspan x="0" y="0">Mænd</tspan></text>
  <text class="cls-2" transform="translate(582.14 957.86)"><tspan x="0" y="0">Kvinder</tspan></text>
</svg>